<?xml version="1.0" standalone="no"?>
<!DOCTYPE svg PUBLIC "-//W3C//DTD SVG 20010904//EN"
 "http://www.w3.org/TR/2001/REC-SVG-20010904/DTD/svg10.dtd">
<svg version="1.0" xmlns="http://www.w3.org/2000/svg"
 width="300.000000pt" height="300.000000pt" viewBox="0 0 300.000000 300.000000"
 preserveAspectRatio="xMidYMid meet">
<metadata>
Created by potrace 1.11, written by Peter Selinger 2001-2013
</metadata>
<g transform="translate(0.000000,300.000000) scale(0.100000,-0.100000)"
fill="#000000" stroke="none">
<path d="M171 1035 c0 -804 1 -865 17 -866 49 -4 209 -4 219 -1 9 3 12 56 11
203 l-1 200 84 85 c46 46 87 83 92 81 5 -1 21 -35 37 -74 55 -136 202 -478
210 -488 7 -8 168 -12 236 -6 10 1 -30 108 -76 206 -5 11 -61 143 -124 294
l-115 273 25 27 c14 14 64 70 112 123 47 54 89 94 93 90 5 -6 122 -274 392
-902 22 -52 47 -100 54 -106 15 -13 82 -10 93 3 4 4 79 180 166 390 87 210
161 383 164 383 3 0 24 -44 46 -97 50 -118 287 -677 290 -681 2 -4 47 -5 80
-3 15 1 26 16 44 59 13 31 33 80 46 107 36 80 420 968 427 988 6 16 -2 17
-119 15 l-126 -3 -42 -100 c-24 -55 -55 -126 -70 -158 -14 -32 -26 -60 -26
-63 0 -3 -10 -26 -21 -52 -26 -57 -117 -267 -131 -302 -9 -23 -10 -24 -20 -7
-5 10 -72 168 -148 350 l-139 332 -85 3 c-76 2 -86 1 -95 -17 -20 -36 -281
-661 -281 -671 0 -32 -22 2 -60 92 -52 122 -88 205 -101 233 -5 11 -42 97 -82
190 l-74 170 -164 3 -164 2 -187 -187 c-103 -104 -199 -200 -215 -215 l-28
-27 1 495 2 494 -124 0 -123 0 0 -865z"/>
</g>
</svg>
