<?xml version="1.0" standalone="no"?>
<!DOCTYPE svg PUBLIC "-//W3C//DTD SVG 20010904//EN"
 "http://www.w3.org/TR/2001/REC-SVG-20010904/DTD/svg10.dtd">
<svg version="1.0" xmlns="http://www.w3.org/2000/svg"
 width="350.000000pt" height="350.000000pt" viewBox="0 0 350.000000 350.000000"
 preserveAspectRatio="xMidYMid meet">
<metadata>
Created by potrace 1.14, written by Peter Selinger 2001-2017
</metadata>
<g transform="translate(0.000000,350.000000) scale(0.100000,-0.100000)"
fill="#000000" stroke="none">
<path d="M1560 3459 c-381 -43 -750 -221 -1020 -490 -332 -332 -510 -761 -510
-1230 0 -568 279 -1094 750 -1418 618 -425 1442 -399 2035 64 81 64 228 207
286 280 279 350 416 818 368 1253 -24 220 -77 402 -174 597 -87 174 -175 295
-325 445 -132 132 -251 223 -397 302 -301 163 -673 235 -1013 197z m-264 -831
c3 -4 3 -28 -1 -55 l-6 -48 -94 3 c-81 3 -101 1 -139 -17 -85 -42 -119 -127
-114 -287 l3 -89 143 -3 142 -3 0 -49 0 -50 -145 0 -145 0 0 -505 0 -505 -65
0 -65 0 -2 503 -3 502 -97 3 -98 3 0 49 0 49 98 3 97 3 5 140 c4 118 9 148 28
190 38 83 93 131 187 162 40 13 258 14 271 1z m415 -159 c27 -12 49 -27 49
-33 0 -23 -55 -146 -66 -146 -18 0 -114 42 -114 50 0 4 11 32 23 61 13 30 27
62 30 72 8 22 18 22 78 -4z m-1 -894 l0 -555 -65 0 -65 0 0 555 0 555 65 0 65
0 0 -555z m552 132 c93 -232 175 -446 183 -474 9 -29 17 -53 20 -53 2 0 11 24
21 53 17 51 99 264 265 685 l83 212 68 0 c37 0 68 -4 68 -9 0 -7 -300 -739
-412 -1004 l-42 -98 -53 3 -54 3 -33 80 c-166 403 -392 948 -406 983 l-19 42
72 0 72 -1 167 -422z"/>
</g>
</svg>
